<svg width="60" height="173" viewBox="0 0 60 173" fill="none" xmlns="http://www.w3.org/2000/svg">
<path opacity="0.6" fill-rule="evenodd" clip-rule="evenodd" d="M1.11667 141.228C2.64785 139.635 5.18002 139.586 6.77244 141.117L30 163.451L53.2276 141.117C54.82 139.586 57.3522 139.635 58.8833 141.228C60.4145 142.82 60.3649 145.352 58.7724 146.883L34.1587 170.55C31.836 172.784 28.164 172.784 25.8414 170.55L1.22757 146.883C-0.364849 145.352 -0.4145 142.82 1.11667 141.228ZM1.11668 106.228C2.64785 104.635 5.18002 104.586 6.77244 106.117L30 128.451L53.2276 106.117C54.82 104.586 57.3522 104.635 58.8833 106.228C60.4145 107.82 60.3649 110.352 58.7724 111.883L34.1587 135.55C31.836 137.784 28.164 137.784 25.8414 135.55L1.22757 111.883C-0.364848 110.352 -0.414498 107.82 1.11668 106.228ZM6.77244 71.1167C5.18002 69.5855 2.64785 69.6352 1.11668 71.2276C-0.414497 72.82 -0.364846 75.3522 1.22757 76.8834L25.8414 100.55C28.164 102.784 31.836 102.784 34.1587 100.55L58.7724 76.8834C60.3649 75.3522 60.4145 72.82 58.8833 71.2276C57.3522 69.6352 54.82 69.5855 53.2276 71.1167L30 93.4509L6.77244 71.1167ZM1.11668 36.2276C2.64785 34.6352 5.18002 34.5855 6.77245 36.1167L30 58.4509L53.2276 36.1167C54.82 34.5855 57.3522 34.6352 58.8833 36.2276C60.4145 37.82 60.3649 40.3522 58.7724 41.8834L34.1587 65.5505C31.836 67.7838 28.164 67.7838 25.8414 65.5505L1.22758 41.8834C-0.364845 40.3522 -0.414495 37.82 1.11668 36.2276ZM6.77245 1.1167C5.18003 -0.414474 2.64785 -0.364822 1.11668 1.2276C-0.414494 2.82002 -0.364843 5.35219 1.22758 6.88336L25.8414 30.5505C28.164 32.7838 31.836 32.7838 34.1587 30.5505L58.7724 6.88336C60.3649 5.35219 60.4145 2.82003 58.8833 1.2276C57.3522 -0.36482 54.82 -0.414472 53.2276 1.1167L30 23.4509L6.77245 1.1167Z" fill="url(#paint0_linear_424_38)" fill-opacity="0.9"/>
<defs>
<linearGradient id="paint0_linear_424_38" x1="-10.9251" y1="-9.98498" x2="82.3727" y2="-0.133547" gradientUnits="userSpaceOnUse">
<stop stop-color="#FFFF1C"/>
<stop offset="1" stop-color="#00C3FF"/>
</linearGradient>
</defs>
</svg>
