<svg width="33" height="33" viewBox="0 0 33 33" fill="none" xmlns="http://www.w3.org/2000/svg">
<path d="M14.267 18.8976L10.787 15.4176C10.4936 15.1242 10.1272 14.9845 9.68776 14.9984C9.24722 15.0112 8.88029 15.1642 8.58696 15.4576C8.29362 15.7509 8.14696 16.1242 8.14696 16.5776C8.14696 17.0309 8.29362 17.4042 8.58696 17.6976L13.147 22.2576C13.4403 22.5509 13.8136 22.6976 14.267 22.6976C14.7203 22.6976 15.0936 22.5509 15.387 22.2576L24.467 13.1776C24.7603 12.8842 24.9006 12.5173 24.8878 12.0768C24.8739 11.6373 24.7203 11.2709 24.427 10.9776C24.1336 10.6842 23.7603 10.5376 23.307 10.5376C22.8536 10.5376 22.4803 10.6842 22.187 10.9776L14.267 18.8976ZM16.507 32.0176C14.2936 32.0176 12.2136 31.5973 10.267 30.7568C8.32029 29.9173 6.62696 28.7776 5.18696 27.3376C3.74696 25.8976 2.60722 24.2042 1.76776 22.2576C0.927225 20.3109 0.506958 18.2309 0.506958 16.0176C0.506958 13.8042 0.927225 11.7242 1.76776 9.77758C2.60722 7.83091 3.74696 6.13758 5.18696 4.69758C6.62696 3.25758 8.32029 2.11731 10.267 1.27678C12.2136 0.437311 14.2936 0.0175781 16.507 0.0175781C18.7203 0.0175781 20.8003 0.437311 22.747 1.27678C24.6936 2.11731 26.387 3.25758 27.827 4.69758C29.267 6.13758 30.4067 7.83091 31.2462 9.77758C32.0867 11.7242 32.507 13.8042 32.507 16.0176C32.507 18.2309 32.0867 20.3109 31.2462 22.2576C30.4067 24.2042 29.267 25.8976 27.827 27.3376C26.387 28.7776 24.6936 29.9173 22.747 30.7568C20.8003 31.5973 18.7203 32.0176 16.507 32.0176ZM16.507 28.8176C20.0536 28.8176 23.0739 27.5712 25.5678 25.0784C28.0606 22.5845 29.307 19.5642 29.307 16.0176C29.307 12.4709 28.0606 9.45064 25.5678 6.95678C23.0739 4.46398 20.0536 3.21758 16.507 3.21758C12.9603 3.21758 9.94056 4.46398 7.44776 6.95678C4.95389 9.45064 3.70696 12.4709 3.70696 16.0176C3.70696 19.5642 4.95389 22.5845 7.44776 25.0784C9.94056 27.5712 12.9603 28.8176 16.507 28.8176Z" fill="url(#paint0_linear_73_276)" fill-opacity="0.9"></path>
<defs>
<linearGradient id="paint0_linear_73_276" x1="34.3622" y1="-5.80915" x2="20.3956" y2="40.2713" gradientUnits="userSpaceOnUse">
<stop stop-color="#FFFF1C"></stop>
<stop offset="1" stop-color="#00C3FF"></stop>
</linearGradient>
</defs>
</svg>