<svg width="45" height="45" viewBox="0 0 49 50" fill="none" xmlns="http://www.w3.org/2000/svg" class="svg-icon">
<path d="M24.5 24.0812C24.5 24.0812 23.1984 15.8891 23.1984 15.2766C23.1984 14.6641 23.8109 14.2812 24.5 14.2812C25.1891 14.2812 25.8016 14.7406 25.8016 15.3531C25.8016 15.9656 24.5 24.0812 24.5 24.0812ZM24.5 25.9953C24.5 25.9953 25.8016 34.1875 25.8016 34.8C25.8016 35.3359 25.1891 35.8719 24.5 35.8719C23.8109 35.8719 23.1984 35.4125 23.1984 34.8C23.1984 34.1875 24.5 25.9953 24.5 25.9953ZM23.5047 25C23.5047 25 15.3125 26.3016 14.7 26.3016C14.1641 26.3016 13.6281 25.6891 13.6281 25C13.6281 24.3109 14.0875 23.6984 14.7 23.6984C15.3125 23.6984 23.5047 25 23.5047 25ZM25.4953 25C25.4953 25 33.6875 23.6984 34.3 23.6984C34.8359 23.6984 35.3719 24.3109 35.3719 25C35.3719 25.6891 34.9125 26.3016 34.3 26.3016C33.6875 26.3016 25.4953 25 25.4953 25ZM23.8109 24.3109C23.8109 24.3109 17.0734 19.4109 16.6906 19.0281C16.3078 18.6453 16.3844 17.8797 16.9203 17.3438C17.4562 16.8078 18.1453 16.7313 18.6047 17.1141C18.9109 17.65 23.8109 24.3109 23.8109 24.3109ZM25.1891 25.6891C25.1891 25.6891 31.9266 30.5891 32.3094 30.9719C32.6922 31.3547 32.6156 32.1203 32.0797 32.6562C31.5437 33.1922 30.8547 33.2687 30.3953 32.8859C30.0891 32.4266 25.1891 25.6891 25.1891 25.6891ZM23.8109 25.6891C23.8109 25.6891 18.9109 32.4266 18.5281 32.8094C18.1453 33.1922 17.3797 33.1156 16.8437 32.5797C16.3078 32.0438 16.2312 31.3547 16.6141 30.8953C17.0734 30.5891 23.8109 25.6891 23.8109 25.6891ZM25.1891 24.3109C25.1891 24.3109 30.0891 17.5734 30.4719 17.1906C30.8547 16.8078 31.6203 16.8844 32.1562 17.4203C32.6922 17.9563 32.7687 18.6453 32.3859 19.1047C31.9266 19.4875 25.1891 24.3109 25.1891 24.3109Z" fill="#6ADBC6" />
<path d="M23.8875 23.3923C23.8875 23.3923 17.15 10.1469 16.7672 9.2282C16.3844 8.30945 16.614 7.31414 17.3031 7.00789C17.9922 6.70164 18.8344 7.31414 19.2172 8.23289C19.6 9.15164 23.8875 23.3923 23.8875 23.3923ZM25.1125 26.6079C25.1125 26.6079 31.85 39.8532 32.2328 40.7719C32.6156 41.6907 32.3859 42.686 31.6969 42.9923C31.0078 43.2985 30.1656 42.686 29.7828 41.7673C29.4 40.8485 25.1125 26.6079 25.1125 26.6079ZM22.8922 25.6891C22.8922 25.6891 9.64686 32.4266 8.72811 32.8095C7.80936 33.1923 6.81405 32.9626 6.5078 32.2735C6.20155 31.5845 6.81405 30.7423 7.7328 30.3594C8.72811 29.9766 22.8922 25.6891 22.8922 25.6891ZM26.1078 24.3876C26.1078 24.3876 39.3531 17.6501 40.2719 17.2673C41.1906 16.8844 42.1859 17.1141 42.4922 17.8032C42.7984 18.4923 42.1859 19.3344 41.2672 19.7173L26.1078 24.3876ZM22.8922 24.311C22.8922 24.311 8.80467 19.7173 7.80936 19.3344C6.81405 18.9516 6.35467 18.1094 6.66092 17.4204C6.96717 16.7313 7.96248 16.5782 8.88123 16.961C9.79998 17.3438 22.8922 24.311 22.8922 24.311ZM26.1078 25.6891C26.1078 25.6891 40.1953 30.2829 41.1906 30.6657C42.1094 31.0485 42.6453 31.9673 42.4156 32.5798C42.1094 33.2688 41.114 33.422 40.1953 33.0391C39.2 32.6563 26.1078 25.6891 26.1078 25.6891ZM23.8109 26.6079C23.8109 26.6079 19.2172 40.6954 18.8344 41.6907C18.4515 42.6095 17.5328 43.1454 16.9203 42.9157C16.2312 42.6095 16.0781 41.6141 16.4609 40.6954C16.8437 39.7001 23.8109 26.6079 23.8109 26.6079ZM25.189 23.4688C25.189 23.4688 29.7828 9.38132 30.1656 8.38601C30.5484 7.3907 31.3906 6.85476 32.0797 7.16101C32.7687 7.46726 32.9219 8.46258 32.539 9.38133C32.1562 10.3766 25.189 23.4688 25.189 23.4688Z" fill="#FFCE31" />
<path d="M24.5 36.5609C24.5 36.5609 25.8016 46.1313 25.8016 46.8203C25.8016 47.5094 25.1891 48.0453 24.5 48.0453C23.8109 48.0453 23.1984 47.5094 23.1984 46.8203C23.1984 46.1313 24.5 36.5609 24.5 36.5609ZM24.5 12.75C24.5 12.75 23.1984 3.79219 23.1984 3.17969C23.1984 2.56719 23.7344 2.03125 24.5 2.03125C25.2656 2.03125 25.8016 2.56719 25.8016 3.17969C25.8016 3.79219 24.5 12.75 24.5 12.75ZM32.6922 33.1922C32.6922 33.1922 40.3484 39.0109 40.8844 39.4703C41.3438 39.9297 41.3437 40.7719 40.8078 41.2313C40.2719 41.6906 39.5063 41.7672 39.0469 41.3078C38.5109 40.8484 32.6922 33.1922 32.6922 33.1922ZM15.8484 16.3484C15.8484 16.3484 8.575 10.9891 8.19219 10.5297C7.73281 10.0703 7.80937 9.30469 8.34531 8.76875C8.88125 8.23281 9.64687 8.23281 10.1062 8.61563C10.4125 9.075 15.8484 16.3484 15.8484 16.3484ZM32.6922 16.8078C32.6922 16.8078 38.5109 9.15156 38.9703 8.61563C39.4297 8.15625 40.2719 8.15625 40.7313 8.69219C41.2672 9.22812 41.2672 9.99375 40.8078 10.4531C40.3484 10.9891 32.6922 16.8078 32.6922 16.8078ZM15.8484 33.6516C15.8484 33.6516 10.4891 40.925 10.0297 41.3078C9.57031 41.7672 8.80469 41.6906 8.26875 41.1547C7.73281 40.6187 7.65625 39.9297 8.11563 39.5469C8.575 39.0875 15.8484 33.6516 15.8484 33.6516ZM36.0609 25C36.0609 25 45.6313 23.6984 46.3203 23.6984C47.0094 23.6984 47.4688 24.2344 47.4688 25C47.4688 25.6891 46.9328 26.3016 46.2438 26.3016C45.6313 26.3016 36.0609 25 36.0609 25ZM12.25 25C12.25 25 3.29219 26.3016 2.67969 26.3016C2.06719 26.3016 1.53125 25.7656 1.53125 25C1.53125 24.2344 2.06719 23.6984 2.67969 23.6984C3.29219 23.6984 12.25 25 12.25 25Z" fill="#42ADE2" />
<path d="M15.8484 5.78286C16.6095 5.78286 17.2266 5.16585 17.2266 4.40474C17.2266 3.64362 16.6095 3.02661 15.8484 3.02661C15.0873 3.02661 14.4703 3.64362 14.4703 4.40474C14.4703 5.16585 15.0873 5.78286 15.8484 5.78286Z" fill="#42ADE2" />
<path d="M33.3047 5.78286C34.0658 5.78286 34.6828 5.16585 34.6828 4.40474C34.6828 3.64362 34.0658 3.02661 33.3047 3.02661C32.5436 3.02661 31.9266 3.64362 31.9266 4.40474C31.9266 5.16585 32.5436 5.78286 33.3047 5.78286Z" fill="#42ADE2" />
<path d="M15.4656 47.05C16.2267 47.05 16.8437 46.4329 16.8437 45.6718C16.8437 44.9107 16.2267 44.2937 15.4656 44.2937C14.7045 44.2937 14.0875 44.9107 14.0875 45.6718C14.0875 46.4329 14.7045 47.05 15.4656 47.05Z" fill="#42ADE2" />
<path d="M32.9219 47.05C33.683 47.05 34.3 46.4329 34.3 45.6718C34.3 44.9107 33.683 44.2937 32.9219 44.2937C32.1608 44.2937 31.5438 44.9107 31.5438 45.6718C31.5438 46.4329 32.1608 47.05 32.9219 47.05Z" fill="#42ADE2" />
<path d="M3.75157 34.953C4.51269 34.953 5.12969 34.336 5.12969 33.5749C5.12969 32.8138 4.51269 32.1968 3.75157 32.1968C2.99045 32.1968 2.37344 32.8138 2.37344 33.5749C2.37344 34.336 2.99045 34.953 3.75157 34.953Z" fill="#42ADE2" />
<path d="M3.75157 17.497C4.51269 17.497 5.12969 16.88 5.12969 16.1188C5.12969 15.3577 4.51269 14.7407 3.75157 14.7407C2.99045 14.7407 2.37344 15.3577 2.37344 16.1188C2.37344 16.88 2.99045 17.497 3.75157 17.497Z" fill="#42ADE2" />
<path d="M45.0187 35.3358C45.7799 35.3358 46.3969 34.7188 46.3969 33.9577C46.3969 33.1966 45.7799 32.5796 45.0187 32.5796C44.2576 32.5796 43.6406 33.1966 43.6406 33.9577C43.6406 34.7188 44.2576 35.3358 45.0187 35.3358Z" fill="#42ADE2" />
<path d="M45.0187 17.8798C45.7799 17.8798 46.3969 17.2628 46.3969 16.5017C46.3969 15.7405 45.7799 15.1235 45.0187 15.1235C44.2576 15.1235 43.6406 15.7405 43.6406 16.5017C43.6406 17.2628 44.2576 17.8798 45.0187 17.8798Z" fill="#42ADE2" />
</svg>