<svg width="668" height="687" viewBox="0 0 668 687" fill="none" xmlns="http://www.w3.org/2000/svg">
<path opacity="0.14" fill-rule="evenodd" clip-rule="evenodd" d="M-117 0H668V686.875H-117V0ZM-115.773 1.22656H-20.1016V96.8984H-115.773V1.22656ZM-17.6484 1.22656H78.0234V96.8984H-17.6484V1.22656ZM176.148 1.22656H80.4766V96.8984H176.148V1.22656ZM178.602 1.22656H274.273V96.8984H178.602V1.22656ZM372.398 1.22656H276.727V96.8984H372.398V1.22656ZM374.852 1.22656H470.523V96.8984H374.852V1.22656ZM568.648 1.22656H472.977V96.8984H568.648V1.22656ZM571.102 1.22656H666.773V96.8984H571.102V1.22656ZM-20.1016 99.3516H-115.773V195.023H-20.1016V99.3516ZM-17.6484 99.3516H78.0234V195.023H-17.6484V99.3516ZM176.148 99.3516H80.4766V195.023H176.148V99.3516ZM178.602 99.3516H274.273V195.023H178.602V99.3516ZM372.398 99.3516H276.727V195.023H372.398V99.3516ZM374.852 99.3516H470.523V195.023H374.852V99.3516ZM568.648 99.3516H472.977V195.023H568.648V99.3516ZM571.102 99.3516H666.773V195.023H571.102V99.3516ZM-20.1016 197.477H-115.773V293.148H-20.1016V197.477ZM-17.6484 197.477H78.0234V293.148H-17.6484V197.477ZM176.148 197.477H80.4766V293.148H176.148V197.477ZM178.602 197.477H274.273V293.148H178.602V197.477ZM372.398 197.477H276.727V293.148H372.398V197.477ZM374.852 197.477H470.523V293.148H374.852V197.477ZM568.648 197.477H472.977V293.148H568.648V197.477ZM571.102 197.477H666.773V293.148H571.102V197.477ZM-20.1016 295.602H-115.773V391.273H-20.1016V295.602ZM-17.6484 295.602H78.0234V391.273H-17.6484V295.602ZM176.148 295.602H80.4766V391.273H176.148V295.602ZM178.602 295.602H274.273V391.273H178.602V295.602ZM372.398 295.602H276.727V391.273H372.398V295.602ZM374.852 295.602H470.523V391.273H374.852V295.602ZM568.648 295.602H472.977V391.273H568.648V295.602ZM571.102 295.602H666.773V391.273H571.102V295.602ZM-20.1016 393.727H-115.773V489.398H-20.1016V393.727ZM-17.6484 393.727H78.0234V489.398H-17.6484V393.727ZM176.148 393.727H80.4766V489.398H176.148V393.727ZM178.602 393.727H274.273V489.398H178.602V393.727ZM372.398 393.727H276.727V489.398H372.398V393.727ZM374.852 393.727H470.523V489.398H374.852V393.727ZM568.648 393.727H472.977V489.398H568.648V393.727ZM571.102 393.727H666.773V489.398H571.102V393.727ZM-20.1016 491.852H-115.773V587.523H-20.1016V491.852ZM-17.6484 491.852H78.0234V587.523H-17.6484V491.852ZM176.148 491.852H80.4766V587.523H176.148V491.852ZM178.602 491.852H274.273V587.523H178.602V491.852ZM372.398 491.852H276.727V587.523H372.398V491.852ZM374.852 491.852H470.523V587.523H374.852V491.852ZM568.648 491.852H472.977V587.523H568.648V491.852ZM571.102 491.852H666.773V587.523H571.102V491.852ZM-20.1016 589.977H-115.773V685.648H-20.1016V589.977ZM-17.6484 589.977H78.0234V685.648H-17.6484V589.977ZM176.148 589.977H80.4766V685.648H176.148V589.977ZM178.602 589.977H274.273V685.648H178.602V589.977ZM372.398 589.977H276.727V685.648H372.398V589.977ZM374.852 589.977H470.523V685.648H374.852V589.977ZM568.648 589.977H472.977V685.648H568.648V589.977ZM571.102 589.977H666.773V685.648H571.102V589.977Z" fill="url(#paint0_linear_424_40)"/>
<defs>
<linearGradient id="paint0_linear_424_40" x1="-117" y1="387.352" x2="579.881" y2="407.46" gradientUnits="userSpaceOnUse">
<stop stop-color="#40E0D0"/>
<stop offset="0.552083" stop-color="#FF8C00" stop-opacity="0.76"/>
<stop offset="1" stop-color="#FF0080" stop-opacity="0"/>
</linearGradient>
</defs>
</svg>
