<svg width="243" height="263" viewBox="0 0 243 263" fill="none" xmlns="http://www.w3.org/2000/svg">
<g opacity="0.32">
<path d="M13.0114 10.7323L10.0088 0.861816L7.00616 10.7323L0 18.2803L10.0088 15.9578L20.0176 18.2803L13.0114 10.7323Z" fill="url(#paint0_linear_424_33)"/>
<path d="M59.2401 10.7323L56.2375 0.861816L53.2348 10.7323L46.2287 18.2803L56.2375 15.9578L66.2463 18.2803L59.2401 10.7323Z" fill="url(#paint1_linear_424_33)"/>
<path d="M102.466 0.861816L105.469 10.7323L112.475 18.2803L102.466 15.9578L92.4573 18.2803L99.4635 10.7323L102.466 0.861816Z" fill="url(#paint2_linear_424_33)"/>
<path d="M151.697 10.7323L148.695 0.861816L145.692 10.7323L138.686 18.2803L148.695 15.9578L158.704 18.2803L151.697 10.7323Z" fill="url(#paint3_linear_424_33)"/>
<path d="M194.923 0.861816L197.926 10.7323L204.932 18.2803L194.923 15.9578L184.915 18.2803L191.921 10.7323L194.923 0.861816Z" fill="url(#paint4_linear_424_33)"/>
<path d="M244.155 10.7323L241.152 0.861816L238.149 10.7323L231.143 18.2803L241.152 15.9578L251.161 18.2803L244.155 10.7323Z" fill="url(#paint5_linear_424_33)"/>
<path d="M287.381 0.861816L290.383 10.7323L297.39 18.2803L287.381 15.9578L277.372 18.2803L284.378 10.7323L287.381 0.861816Z" fill="url(#paint6_linear_424_33)"/>
<path d="M336.612 10.7323L333.609 0.861816L330.607 10.7323L323.601 18.2803L333.609 15.9578L343.618 18.2803L336.612 10.7323Z" fill="url(#paint7_linear_424_33)"/>
<path d="M10.0088 35.6987L13.0114 45.5691L20.0176 53.1171L10.0088 50.7947L0 53.1171L7.00616 45.5691L10.0088 35.6987Z" fill="url(#paint8_linear_424_33)"/>
<path d="M59.2401 45.5691L56.2375 35.6987L53.2348 45.5691L46.2287 53.1171L56.2375 50.7947L66.2463 53.1171L59.2401 45.5691Z" fill="url(#paint9_linear_424_33)"/>
<path d="M102.466 35.6987L105.469 45.5691L112.475 53.1171L102.466 50.7947L92.4573 53.1171L99.4635 45.5691L102.466 35.6987Z" fill="url(#paint10_linear_424_33)"/>
<path d="M151.697 45.5691L148.695 35.6987L145.692 45.5691L138.686 53.1171L148.695 50.7947L158.704 53.1171L151.697 45.5691Z" fill="url(#paint11_linear_424_33)"/>
<path d="M194.923 35.6987L197.926 45.5691L204.932 53.1171L194.923 50.7947L184.915 53.1171L191.921 45.5691L194.923 35.6987Z" fill="url(#paint12_linear_424_33)"/>
<path d="M244.155 45.5691L241.152 35.6987L238.149 45.5691L231.143 53.1171L241.152 50.7947L251.161 53.1171L244.155 45.5691Z" fill="url(#paint13_linear_424_33)"/>
<path d="M287.381 35.6987L290.383 45.5691L297.39 53.1171L287.381 50.7947L277.372 53.1171L284.378 45.5691L287.381 35.6987Z" fill="url(#paint14_linear_424_33)"/>
<path d="M336.612 45.5691L333.609 35.6987L330.607 45.5691L323.601 53.1171L333.609 50.7947L343.618 53.1171L336.612 45.5691Z" fill="url(#paint15_linear_424_33)"/>
<path d="M10.0088 70.5356L13.0114 80.406L20.0176 87.954L10.0088 85.6315L0 87.954L7.00616 80.406L10.0088 70.5356Z" fill="url(#paint16_linear_424_33)"/>
<path d="M59.2401 80.406L56.2375 70.5356L53.2348 80.406L46.2287 87.954L56.2375 85.6315L66.2463 87.954L59.2401 80.406Z" fill="url(#paint17_linear_424_33)"/>
<path d="M102.466 70.5356L105.469 80.406L112.475 87.954L102.466 85.6315L92.4573 87.954L99.4635 80.406L102.466 70.5356Z" fill="url(#paint18_linear_424_33)"/>
<path d="M151.697 80.406L148.695 70.5356L145.692 80.406L138.686 87.954L148.695 85.6315L158.704 87.954L151.697 80.406Z" fill="url(#paint19_linear_424_33)"/>
<path d="M194.923 70.5356L197.926 80.406L204.932 87.954L194.923 85.6315L184.915 87.954L191.921 80.406L194.923 70.5356Z" fill="url(#paint20_linear_424_33)"/>
<path d="M244.155 80.406L241.152 70.5356L238.149 80.406L231.143 87.954L241.152 85.6315L251.161 87.954L244.155 80.406Z" fill="url(#paint21_linear_424_33)"/>
<path d="M287.381 70.5356L290.383 80.406L297.39 87.954L287.381 85.6315L277.372 87.954L284.378 80.406L287.381 70.5356Z" fill="url(#paint22_linear_424_33)"/>
<path d="M336.612 80.406L333.609 70.5356L330.607 80.406L323.601 87.954L333.609 85.6315L343.618 87.954L336.612 80.406Z" fill="url(#paint23_linear_424_33)"/>
<path d="M10.0088 105.372L13.0114 115.243L20.0176 122.791L10.0088 120.468L0 122.791L7.00616 115.243L10.0088 105.372Z" fill="url(#paint24_linear_424_33)"/>
<path d="M59.2401 115.243L56.2375 105.372L53.2348 115.243L46.2287 122.791L56.2375 120.468L66.2463 122.791L59.2401 115.243Z" fill="url(#paint25_linear_424_33)"/>
<path d="M102.466 105.372L105.469 115.243L112.475 122.791L102.466 120.468L92.4573 122.791L99.4635 115.243L102.466 105.372Z" fill="url(#paint26_linear_424_33)"/>
<path d="M151.697 115.243L148.695 105.372L145.692 115.243L138.686 122.791L148.695 120.468L158.704 122.791L151.697 115.243Z" fill="url(#paint27_linear_424_33)"/>
<path d="M194.923 105.372L197.926 115.243L204.932 122.791L194.923 120.468L184.915 122.791L191.921 115.243L194.923 105.372Z" fill="url(#paint28_linear_424_33)"/>
<path d="M244.155 115.243L241.152 105.372L238.149 115.243L231.143 122.791L241.152 120.468L251.161 122.791L244.155 115.243Z" fill="url(#paint29_linear_424_33)"/>
<path d="M287.381 105.372L290.383 115.243L297.39 122.791L287.381 120.468L277.372 122.791L284.378 115.243L287.381 105.372Z" fill="url(#paint30_linear_424_33)"/>
<path d="M336.612 115.243L333.609 105.372L330.607 115.243L323.601 122.791L333.609 120.468L343.618 122.791L336.612 115.243Z" fill="url(#paint31_linear_424_33)"/>
<path d="M10.0088 140.209L13.0114 150.08L20.0176 157.628L10.0088 155.305L0 157.628L7.00616 150.08L10.0088 140.209Z" fill="url(#paint32_linear_424_33)"/>
<path d="M59.2401 150.08L56.2375 140.209L53.2348 150.08L46.2287 157.628L56.2375 155.305L66.2463 157.628L59.2401 150.08Z" fill="url(#paint33_linear_424_33)"/>
<path d="M102.466 140.209L105.469 150.08L112.475 157.628L102.466 155.305L92.4573 157.628L99.4635 150.08L102.466 140.209Z" fill="url(#paint34_linear_424_33)"/>
<path d="M151.697 150.08L148.695 140.209L145.692 150.08L138.686 157.628L148.695 155.305L158.704 157.628L151.697 150.08Z" fill="url(#paint35_linear_424_33)"/>
<path d="M194.923 140.209L197.926 150.08L204.932 157.628L194.923 155.305L184.915 157.628L191.921 150.08L194.923 140.209Z" fill="url(#paint36_linear_424_33)"/>
<path d="M244.155 150.08L241.152 140.209L238.149 150.08L231.143 157.628L241.152 155.305L251.161 157.628L244.155 150.08Z" fill="url(#paint37_linear_424_33)"/>
<path d="M287.381 140.209L290.383 150.08L297.39 157.628L287.381 155.305L277.372 157.628L284.378 150.08L287.381 140.209Z" fill="url(#paint38_linear_424_33)"/>
<path d="M336.612 150.08L333.609 140.209L330.607 150.08L323.601 157.628L333.609 155.305L343.618 157.628L336.612 150.08Z" fill="url(#paint39_linear_424_33)"/>
<path d="M10.0088 175.046L13.0114 184.917L20.0176 192.465L10.0088 190.142L0 192.465L7.00616 184.917L10.0088 175.046Z" fill="url(#paint40_linear_424_33)"/>
<path d="M59.2401 184.917L56.2375 175.046L53.2348 184.917L46.2287 192.465L56.2375 190.142L66.2463 192.465L59.2401 184.917Z" fill="url(#paint41_linear_424_33)"/>
<path d="M102.466 175.046L105.469 184.917L112.475 192.465L102.466 190.142L92.4573 192.465L99.4635 184.917L102.466 175.046Z" fill="url(#paint42_linear_424_33)"/>
<path d="M151.697 184.917L148.695 175.046L145.692 184.917L138.686 192.465L148.695 190.142L158.704 192.465L151.697 184.917Z" fill="url(#paint43_linear_424_33)"/>
<path d="M194.923 175.046L197.926 184.917L204.932 192.465L194.923 190.142L184.915 192.465L191.921 184.917L194.923 175.046Z" fill="url(#paint44_linear_424_33)"/>
<path d="M244.155 184.917L241.152 175.046L238.149 184.917L231.143 192.465L241.152 190.142L251.161 192.465L244.155 184.917Z" fill="url(#paint45_linear_424_33)"/>
<path d="M287.381 175.046L290.383 184.917L297.39 192.465L287.381 190.142L277.372 192.465L284.378 184.917L287.381 175.046Z" fill="url(#paint46_linear_424_33)"/>
<path d="M336.612 184.917L333.609 175.046L330.607 184.917L323.601 192.465L333.609 190.142L343.618 192.465L336.612 184.917Z" fill="url(#paint47_linear_424_33)"/>
<path d="M10.0088 209.883L13.0114 219.753L20.0176 227.301L10.0088 224.979L0 227.301L7.00616 219.753L10.0088 209.883Z" fill="url(#paint48_linear_424_33)"/>
<path d="M59.2401 219.753L56.2375 209.883L53.2348 219.753L46.2287 227.301L56.2375 224.979L66.2463 227.301L59.2401 219.753Z" fill="url(#paint49_linear_424_33)"/>
<path d="M102.466 209.883L105.469 219.753L112.475 227.301L102.466 224.979L92.4573 227.301L99.4635 219.753L102.466 209.883Z" fill="url(#paint50_linear_424_33)"/>
<path d="M151.697 219.753L148.695 209.883L145.692 219.753L138.686 227.301L148.695 224.979L158.704 227.301L151.697 219.753Z" fill="url(#paint51_linear_424_33)"/>
<path d="M194.923 209.883L197.926 219.753L204.932 227.301L194.923 224.979L184.915 227.301L191.921 219.753L194.923 209.883Z" fill="url(#paint52_linear_424_33)"/>
<path d="M244.155 219.753L241.152 209.883L238.149 219.753L231.143 227.301L241.152 224.979L251.161 227.301L244.155 219.753Z" fill="url(#paint53_linear_424_33)"/>
<path d="M287.381 209.883L290.383 219.753L297.39 227.301L287.381 224.979L277.372 227.301L284.378 219.753L287.381 209.883Z" fill="url(#paint54_linear_424_33)"/>
<path d="M336.612 219.753L333.609 209.883L330.607 219.753L323.601 227.301L333.609 224.979L343.618 227.301L336.612 219.753Z" fill="url(#paint55_linear_424_33)"/>
<path d="M10.0088 244.72L13.0114 254.59L20.0176 262.138L10.0088 259.816L0 262.138L7.00616 254.59L10.0088 244.72Z" fill="url(#paint56_linear_424_33)"/>
<path d="M59.2401 254.59L56.2375 244.72L53.2348 254.59L46.2287 262.138L56.2375 259.816L66.2463 262.138L59.2401 254.59Z" fill="url(#paint57_linear_424_33)"/>
<path d="M102.466 244.72L105.469 254.59L112.475 262.138L102.466 259.816L92.4573 262.138L99.4635 254.59L102.466 244.72Z" fill="url(#paint58_linear_424_33)"/>
<path d="M151.697 254.59L148.695 244.72L145.692 254.59L138.686 262.138L148.695 259.816L158.704 262.138L151.697 254.59Z" fill="url(#paint59_linear_424_33)"/>
<path d="M194.923 244.72L197.926 254.59L204.932 262.138L194.923 259.816L184.915 262.138L191.921 254.59L194.923 244.72Z" fill="url(#paint60_linear_424_33)"/>
<path d="M244.155 254.59L241.152 244.72L238.149 254.59L231.143 262.138L241.152 259.816L251.161 262.138L244.155 254.59Z" fill="url(#paint61_linear_424_33)"/>
<path d="M287.381 244.72L290.383 254.59L297.39 262.138L287.381 259.816L277.372 262.138L284.378 254.59L287.381 244.72Z" fill="url(#paint62_linear_424_33)"/>
<path d="M336.612 254.59L333.609 244.72L330.607 254.59L323.601 262.138L333.609 259.816L343.618 262.138L336.612 254.59Z" fill="url(#paint63_linear_424_33)"/>
</g>
<defs>
<linearGradient id="paint0_linear_424_33" x1="2.04905e-06" y1="148.205" x2="338.352" y2="217.802" gradientUnits="userSpaceOnUse">
<stop stop-color="#40E0D0"/>
<stop offset="0.552083" stop-color="#FF8C00" stop-opacity="0.76"/>
<stop offset="1" stop-color="#FF0080" stop-opacity="0.85"/>
</linearGradient>
<linearGradient id="paint1_linear_424_33" x1="2.04905e-06" y1="148.205" x2="338.352" y2="217.802" gradientUnits="userSpaceOnUse">
<stop stop-color="#40E0D0"/>
<stop offset="0.552083" stop-color="#FF8C00" stop-opacity="0.76"/>
<stop offset="1" stop-color="#FF0080" stop-opacity="0.85"/>
</linearGradient>
<linearGradient id="paint2_linear_424_33" x1="2.04905e-06" y1="148.205" x2="338.352" y2="217.802" gradientUnits="userSpaceOnUse">
<stop stop-color="#40E0D0"/>
<stop offset="0.552083" stop-color="#FF8C00" stop-opacity="0.76"/>
<stop offset="1" stop-color="#FF0080" stop-opacity="0.85"/>
</linearGradient>
<linearGradient id="paint3_linear_424_33" x1="2.04905e-06" y1="148.205" x2="338.352" y2="217.802" gradientUnits="userSpaceOnUse">
<stop stop-color="#40E0D0"/>
<stop offset="0.552083" stop-color="#FF8C00" stop-opacity="0.76"/>
<stop offset="1" stop-color="#FF0080" stop-opacity="0.85"/>
</linearGradient>
<linearGradient id="paint4_linear_424_33" x1="2.04905e-06" y1="148.205" x2="338.352" y2="217.802" gradientUnits="userSpaceOnUse">
<stop stop-color="#40E0D0"/>
<stop offset="0.552083" stop-color="#FF8C00" stop-opacity="0.76"/>
<stop offset="1" stop-color="#FF0080" stop-opacity="0.85"/>
</linearGradient>
<linearGradient id="paint5_linear_424_33" x1="2.04905e-06" y1="148.205" x2="338.352" y2="217.802" gradientUnits="userSpaceOnUse">
<stop stop-color="#40E0D0"/>
<stop offset="0.552083" stop-color="#FF8C00" stop-opacity="0.76"/>
<stop offset="1" stop-color="#FF0080" stop-opacity="0.85"/>
</linearGradient>
<linearGradient id="paint6_linear_424_33" x1="2.04905e-06" y1="148.205" x2="338.352" y2="217.802" gradientUnits="userSpaceOnUse">
<stop stop-color="#40E0D0"/>
<stop offset="0.552083" stop-color="#FF8C00" stop-opacity="0.76"/>
<stop offset="1" stop-color="#FF0080" stop-opacity="0.85"/>
</linearGradient>
<linearGradient id="paint7_linear_424_33" x1="2.04905e-06" y1="148.205" x2="338.352" y2="217.802" gradientUnits="userSpaceOnUse">
<stop stop-color="#40E0D0"/>
<stop offset="0.552083" stop-color="#FF8C00" stop-opacity="0.76"/>
<stop offset="1" stop-color="#FF0080" stop-opacity="0.85"/>
</linearGradient>
<linearGradient id="paint8_linear_424_33" x1="2.04905e-06" y1="148.205" x2="338.352" y2="217.802" gradientUnits="userSpaceOnUse">
<stop stop-color="#40E0D0"/>
<stop offset="0.552083" stop-color="#FF8C00" stop-opacity="0.76"/>
<stop offset="1" stop-color="#FF0080" stop-opacity="0.85"/>
</linearGradient>
<linearGradient id="paint9_linear_424_33" x1="2.04905e-06" y1="148.205" x2="338.352" y2="217.802" gradientUnits="userSpaceOnUse">
<stop stop-color="#40E0D0"/>
<stop offset="0.552083" stop-color="#FF8C00" stop-opacity="0.76"/>
<stop offset="1" stop-color="#FF0080" stop-opacity="0.85"/>
</linearGradient>
<linearGradient id="paint10_linear_424_33" x1="2.04905e-06" y1="148.205" x2="338.352" y2="217.802" gradientUnits="userSpaceOnUse">
<stop stop-color="#40E0D0"/>
<stop offset="0.552083" stop-color="#FF8C00" stop-opacity="0.76"/>
<stop offset="1" stop-color="#FF0080" stop-opacity="0.85"/>
</linearGradient>
<linearGradient id="paint11_linear_424_33" x1="2.04905e-06" y1="148.205" x2="338.352" y2="217.802" gradientUnits="userSpaceOnUse">
<stop stop-color="#40E0D0"/>
<stop offset="0.552083" stop-color="#FF8C00" stop-opacity="0.76"/>
<stop offset="1" stop-color="#FF0080" stop-opacity="0.85"/>
</linearGradient>
<linearGradient id="paint12_linear_424_33" x1="2.04905e-06" y1="148.205" x2="338.352" y2="217.802" gradientUnits="userSpaceOnUse">
<stop stop-color="#40E0D0"/>
<stop offset="0.552083" stop-color="#FF8C00" stop-opacity="0.76"/>
<stop offset="1" stop-color="#FF0080" stop-opacity="0.85"/>
</linearGradient>
<linearGradient id="paint13_linear_424_33" x1="2.04905e-06" y1="148.205" x2="338.352" y2="217.802" gradientUnits="userSpaceOnUse">
<stop stop-color="#40E0D0"/>
<stop offset="0.552083" stop-color="#FF8C00" stop-opacity="0.76"/>
<stop offset="1" stop-color="#FF0080" stop-opacity="0.85"/>
</linearGradient>
<linearGradient id="paint14_linear_424_33" x1="2.04905e-06" y1="148.205" x2="338.352" y2="217.802" gradientUnits="userSpaceOnUse">
<stop stop-color="#40E0D0"/>
<stop offset="0.552083" stop-color="#FF8C00" stop-opacity="0.76"/>
<stop offset="1" stop-color="#FF0080" stop-opacity="0.85"/>
</linearGradient>
<linearGradient id="paint15_linear_424_33" x1="2.04905e-06" y1="148.205" x2="338.352" y2="217.802" gradientUnits="userSpaceOnUse">
<stop stop-color="#40E0D0"/>
<stop offset="0.552083" stop-color="#FF8C00" stop-opacity="0.76"/>
<stop offset="1" stop-color="#FF0080" stop-opacity="0.85"/>
</linearGradient>
<linearGradient id="paint16_linear_424_33" x1="2.04905e-06" y1="148.205" x2="338.352" y2="217.802" gradientUnits="userSpaceOnUse">
<stop stop-color="#40E0D0"/>
<stop offset="0.552083" stop-color="#FF8C00" stop-opacity="0.76"/>
<stop offset="1" stop-color="#FF0080" stop-opacity="0.85"/>
</linearGradient>
<linearGradient id="paint17_linear_424_33" x1="2.04905e-06" y1="148.205" x2="338.352" y2="217.802" gradientUnits="userSpaceOnUse">
<stop stop-color="#40E0D0"/>
<stop offset="0.552083" stop-color="#FF8C00" stop-opacity="0.76"/>
<stop offset="1" stop-color="#FF0080" stop-opacity="0.85"/>
</linearGradient>
<linearGradient id="paint18_linear_424_33" x1="2.04905e-06" y1="148.205" x2="338.352" y2="217.802" gradientUnits="userSpaceOnUse">
<stop stop-color="#40E0D0"/>
<stop offset="0.552083" stop-color="#FF8C00" stop-opacity="0.76"/>
<stop offset="1" stop-color="#FF0080" stop-opacity="0.85"/>
</linearGradient>
<linearGradient id="paint19_linear_424_33" x1="2.04905e-06" y1="148.205" x2="338.352" y2="217.802" gradientUnits="userSpaceOnUse">
<stop stop-color="#40E0D0"/>
<stop offset="0.552083" stop-color="#FF8C00" stop-opacity="0.76"/>
<stop offset="1" stop-color="#FF0080" stop-opacity="0.85"/>
</linearGradient>
<linearGradient id="paint20_linear_424_33" x1="2.04905e-06" y1="148.205" x2="338.352" y2="217.802" gradientUnits="userSpaceOnUse">
<stop stop-color="#40E0D0"/>
<stop offset="0.552083" stop-color="#FF8C00" stop-opacity="0.76"/>
<stop offset="1" stop-color="#FF0080" stop-opacity="0.85"/>
</linearGradient>
<linearGradient id="paint21_linear_424_33" x1="2.04905e-06" y1="148.205" x2="338.352" y2="217.802" gradientUnits="userSpaceOnUse">
<stop stop-color="#40E0D0"/>
<stop offset="0.552083" stop-color="#FF8C00" stop-opacity="0.76"/>
<stop offset="1" stop-color="#FF0080" stop-opacity="0.85"/>
</linearGradient>
<linearGradient id="paint22_linear_424_33" x1="2.04905e-06" y1="148.205" x2="338.352" y2="217.802" gradientUnits="userSpaceOnUse">
<stop stop-color="#40E0D0"/>
<stop offset="0.552083" stop-color="#FF8C00" stop-opacity="0.76"/>
<stop offset="1" stop-color="#FF0080" stop-opacity="0.85"/>
</linearGradient>
<linearGradient id="paint23_linear_424_33" x1="2.04905e-06" y1="148.205" x2="338.352" y2="217.802" gradientUnits="userSpaceOnUse">
<stop stop-color="#40E0D0"/>
<stop offset="0.552083" stop-color="#FF8C00" stop-opacity="0.76"/>
<stop offset="1" stop-color="#FF0080" stop-opacity="0.85"/>
</linearGradient>
<linearGradient id="paint24_linear_424_33" x1="2.04905e-06" y1="148.205" x2="338.352" y2="217.802" gradientUnits="userSpaceOnUse">
<stop stop-color="#40E0D0"/>
<stop offset="0.552083" stop-color="#FF8C00" stop-opacity="0.76"/>
<stop offset="1" stop-color="#FF0080" stop-opacity="0.85"/>
</linearGradient>
<linearGradient id="paint25_linear_424_33" x1="2.04905e-06" y1="148.205" x2="338.352" y2="217.802" gradientUnits="userSpaceOnUse">
<stop stop-color="#40E0D0"/>
<stop offset="0.552083" stop-color="#FF8C00" stop-opacity="0.76"/>
<stop offset="1" stop-color="#FF0080" stop-opacity="0.85"/>
</linearGradient>
<linearGradient id="paint26_linear_424_33" x1="2.04905e-06" y1="148.205" x2="338.352" y2="217.802" gradientUnits="userSpaceOnUse">
<stop stop-color="#40E0D0"/>
<stop offset="0.552083" stop-color="#FF8C00" stop-opacity="0.76"/>
<stop offset="1" stop-color="#FF0080" stop-opacity="0.85"/>
</linearGradient>
<linearGradient id="paint27_linear_424_33" x1="2.04905e-06" y1="148.205" x2="338.352" y2="217.802" gradientUnits="userSpaceOnUse">
<stop stop-color="#40E0D0"/>
<stop offset="0.552083" stop-color="#FF8C00" stop-opacity="0.76"/>
<stop offset="1" stop-color="#FF0080" stop-opacity="0.85"/>
</linearGradient>
<linearGradient id="paint28_linear_424_33" x1="2.04905e-06" y1="148.205" x2="338.352" y2="217.802" gradientUnits="userSpaceOnUse">
<stop stop-color="#40E0D0"/>
<stop offset="0.552083" stop-color="#FF8C00" stop-opacity="0.76"/>
<stop offset="1" stop-color="#FF0080" stop-opacity="0.85"/>
</linearGradient>
<linearGradient id="paint29_linear_424_33" x1="2.04905e-06" y1="148.205" x2="338.352" y2="217.802" gradientUnits="userSpaceOnUse">
<stop stop-color="#40E0D0"/>
<stop offset="0.552083" stop-color="#FF8C00" stop-opacity="0.76"/>
<stop offset="1" stop-color="#FF0080" stop-opacity="0.85"/>
</linearGradient>
<linearGradient id="paint30_linear_424_33" x1="2.04905e-06" y1="148.205" x2="338.352" y2="217.802" gradientUnits="userSpaceOnUse">
<stop stop-color="#40E0D0"/>
<stop offset="0.552083" stop-color="#FF8C00" stop-opacity="0.76"/>
<stop offset="1" stop-color="#FF0080" stop-opacity="0.85"/>
</linearGradient>
<linearGradient id="paint31_linear_424_33" x1="2.04905e-06" y1="148.205" x2="338.352" y2="217.802" gradientUnits="userSpaceOnUse">
<stop stop-color="#40E0D0"/>
<stop offset="0.552083" stop-color="#FF8C00" stop-opacity="0.76"/>
<stop offset="1" stop-color="#FF0080" stop-opacity="0.85"/>
</linearGradient>
<linearGradient id="paint32_linear_424_33" x1="2.04905e-06" y1="148.205" x2="338.352" y2="217.802" gradientUnits="userSpaceOnUse">
<stop stop-color="#40E0D0"/>
<stop offset="0.552083" stop-color="#FF8C00" stop-opacity="0.76"/>
<stop offset="1" stop-color="#FF0080" stop-opacity="0.85"/>
</linearGradient>
<linearGradient id="paint33_linear_424_33" x1="2.04905e-06" y1="148.205" x2="338.352" y2="217.802" gradientUnits="userSpaceOnUse">
<stop stop-color="#40E0D0"/>
<stop offset="0.552083" stop-color="#FF8C00" stop-opacity="0.76"/>
<stop offset="1" stop-color="#FF0080" stop-opacity="0.85"/>
</linearGradient>
<linearGradient id="paint34_linear_424_33" x1="2.04905e-06" y1="148.205" x2="338.352" y2="217.802" gradientUnits="userSpaceOnUse">
<stop stop-color="#40E0D0"/>
<stop offset="0.552083" stop-color="#FF8C00" stop-opacity="0.76"/>
<stop offset="1" stop-color="#FF0080" stop-opacity="0.85"/>
</linearGradient>
<linearGradient id="paint35_linear_424_33" x1="2.04905e-06" y1="148.205" x2="338.352" y2="217.802" gradientUnits="userSpaceOnUse">
<stop stop-color="#40E0D0"/>
<stop offset="0.552083" stop-color="#FF8C00" stop-opacity="0.76"/>
<stop offset="1" stop-color="#FF0080" stop-opacity="0.85"/>
</linearGradient>
<linearGradient id="paint36_linear_424_33" x1="2.04905e-06" y1="148.205" x2="338.352" y2="217.802" gradientUnits="userSpaceOnUse">
<stop stop-color="#40E0D0"/>
<stop offset="0.552083" stop-color="#FF8C00" stop-opacity="0.76"/>
<stop offset="1" stop-color="#FF0080" stop-opacity="0.85"/>
</linearGradient>
<linearGradient id="paint37_linear_424_33" x1="2.04905e-06" y1="148.205" x2="338.352" y2="217.802" gradientUnits="userSpaceOnUse">
<stop stop-color="#40E0D0"/>
<stop offset="0.552083" stop-color="#FF8C00" stop-opacity="0.76"/>
<stop offset="1" stop-color="#FF0080" stop-opacity="0.85"/>
</linearGradient>
<linearGradient id="paint38_linear_424_33" x1="2.04905e-06" y1="148.205" x2="338.352" y2="217.802" gradientUnits="userSpaceOnUse">
<stop stop-color="#40E0D0"/>
<stop offset="0.552083" stop-color="#FF8C00" stop-opacity="0.76"/>
<stop offset="1" stop-color="#FF0080" stop-opacity="0.85"/>
</linearGradient>
<linearGradient id="paint39_linear_424_33" x1="2.04905e-06" y1="148.205" x2="338.352" y2="217.802" gradientUnits="userSpaceOnUse">
<stop stop-color="#40E0D0"/>
<stop offset="0.552083" stop-color="#FF8C00" stop-opacity="0.76"/>
<stop offset="1" stop-color="#FF0080" stop-opacity="0.85"/>
</linearGradient>
<linearGradient id="paint40_linear_424_33" x1="2.04905e-06" y1="148.205" x2="338.352" y2="217.802" gradientUnits="userSpaceOnUse">
<stop stop-color="#40E0D0"/>
<stop offset="0.552083" stop-color="#FF8C00" stop-opacity="0.76"/>
<stop offset="1" stop-color="#FF0080" stop-opacity="0.85"/>
</linearGradient>
<linearGradient id="paint41_linear_424_33" x1="2.04905e-06" y1="148.205" x2="338.352" y2="217.802" gradientUnits="userSpaceOnUse">
<stop stop-color="#40E0D0"/>
<stop offset="0.552083" stop-color="#FF8C00" stop-opacity="0.76"/>
<stop offset="1" stop-color="#FF0080" stop-opacity="0.85"/>
</linearGradient>
<linearGradient id="paint42_linear_424_33" x1="2.04905e-06" y1="148.205" x2="338.352" y2="217.802" gradientUnits="userSpaceOnUse">
<stop stop-color="#40E0D0"/>
<stop offset="0.552083" stop-color="#FF8C00" stop-opacity="0.76"/>
<stop offset="1" stop-color="#FF0080" stop-opacity="0.85"/>
</linearGradient>
<linearGradient id="paint43_linear_424_33" x1="2.04905e-06" y1="148.205" x2="338.352" y2="217.802" gradientUnits="userSpaceOnUse">
<stop stop-color="#40E0D0"/>
<stop offset="0.552083" stop-color="#FF8C00" stop-opacity="0.76"/>
<stop offset="1" stop-color="#FF0080" stop-opacity="0.85"/>
</linearGradient>
<linearGradient id="paint44_linear_424_33" x1="2.04905e-06" y1="148.205" x2="338.352" y2="217.802" gradientUnits="userSpaceOnUse">
<stop stop-color="#40E0D0"/>
<stop offset="0.552083" stop-color="#FF8C00" stop-opacity="0.76"/>
<stop offset="1" stop-color="#FF0080" stop-opacity="0.85"/>
</linearGradient>
<linearGradient id="paint45_linear_424_33" x1="2.04905e-06" y1="148.205" x2="338.352" y2="217.802" gradientUnits="userSpaceOnUse">
<stop stop-color="#40E0D0"/>
<stop offset="0.552083" stop-color="#FF8C00" stop-opacity="0.76"/>
<stop offset="1" stop-color="#FF0080" stop-opacity="0.85"/>
</linearGradient>
<linearGradient id="paint46_linear_424_33" x1="2.04905e-06" y1="148.205" x2="338.352" y2="217.802" gradientUnits="userSpaceOnUse">
<stop stop-color="#40E0D0"/>
<stop offset="0.552083" stop-color="#FF8C00" stop-opacity="0.76"/>
<stop offset="1" stop-color="#FF0080" stop-opacity="0.85"/>
</linearGradient>
<linearGradient id="paint47_linear_424_33" x1="2.04905e-06" y1="148.205" x2="338.352" y2="217.802" gradientUnits="userSpaceOnUse">
<stop stop-color="#40E0D0"/>
<stop offset="0.552083" stop-color="#FF8C00" stop-opacity="0.76"/>
<stop offset="1" stop-color="#FF0080" stop-opacity="0.85"/>
</linearGradient>
<linearGradient id="paint48_linear_424_33" x1="2.04905e-06" y1="148.205" x2="338.352" y2="217.802" gradientUnits="userSpaceOnUse">
<stop stop-color="#40E0D0"/>
<stop offset="0.552083" stop-color="#FF8C00" stop-opacity="0.76"/>
<stop offset="1" stop-color="#FF0080" stop-opacity="0.85"/>
</linearGradient>
<linearGradient id="paint49_linear_424_33" x1="2.04905e-06" y1="148.205" x2="338.352" y2="217.802" gradientUnits="userSpaceOnUse">
<stop stop-color="#40E0D0"/>
<stop offset="0.552083" stop-color="#FF8C00" stop-opacity="0.76"/>
<stop offset="1" stop-color="#FF0080" stop-opacity="0.85"/>
</linearGradient>
<linearGradient id="paint50_linear_424_33" x1="2.04905e-06" y1="148.205" x2="338.352" y2="217.802" gradientUnits="userSpaceOnUse">
<stop stop-color="#40E0D0"/>
<stop offset="0.552083" stop-color="#FF8C00" stop-opacity="0.76"/>
<stop offset="1" stop-color="#FF0080" stop-opacity="0.85"/>
</linearGradient>
<linearGradient id="paint51_linear_424_33" x1="2.04905e-06" y1="148.205" x2="338.352" y2="217.802" gradientUnits="userSpaceOnUse">
<stop stop-color="#40E0D0"/>
<stop offset="0.552083" stop-color="#FF8C00" stop-opacity="0.76"/>
<stop offset="1" stop-color="#FF0080" stop-opacity="0.85"/>
</linearGradient>
<linearGradient id="paint52_linear_424_33" x1="2.04905e-06" y1="148.205" x2="338.352" y2="217.802" gradientUnits="userSpaceOnUse">
<stop stop-color="#40E0D0"/>
<stop offset="0.552083" stop-color="#FF8C00" stop-opacity="0.76"/>
<stop offset="1" stop-color="#FF0080" stop-opacity="0.85"/>
</linearGradient>
<linearGradient id="paint53_linear_424_33" x1="2.04905e-06" y1="148.205" x2="338.352" y2="217.802" gradientUnits="userSpaceOnUse">
<stop stop-color="#40E0D0"/>
<stop offset="0.552083" stop-color="#FF8C00" stop-opacity="0.76"/>
<stop offset="1" stop-color="#FF0080" stop-opacity="0.85"/>
</linearGradient>
<linearGradient id="paint54_linear_424_33" x1="2.04905e-06" y1="148.205" x2="338.352" y2="217.802" gradientUnits="userSpaceOnUse">
<stop stop-color="#40E0D0"/>
<stop offset="0.552083" stop-color="#FF8C00" stop-opacity="0.76"/>
<stop offset="1" stop-color="#FF0080" stop-opacity="0.85"/>
</linearGradient>
<linearGradient id="paint55_linear_424_33" x1="2.04905e-06" y1="148.205" x2="338.352" y2="217.802" gradientUnits="userSpaceOnUse">
<stop stop-color="#40E0D0"/>
<stop offset="0.552083" stop-color="#FF8C00" stop-opacity="0.76"/>
<stop offset="1" stop-color="#FF0080" stop-opacity="0.85"/>
</linearGradient>
<linearGradient id="paint56_linear_424_33" x1="2.04905e-06" y1="148.205" x2="338.352" y2="217.802" gradientUnits="userSpaceOnUse">
<stop stop-color="#40E0D0"/>
<stop offset="0.552083" stop-color="#FF8C00" stop-opacity="0.76"/>
<stop offset="1" stop-color="#FF0080" stop-opacity="0.85"/>
</linearGradient>
<linearGradient id="paint57_linear_424_33" x1="2.04905e-06" y1="148.205" x2="338.352" y2="217.802" gradientUnits="userSpaceOnUse">
<stop stop-color="#40E0D0"/>
<stop offset="0.552083" stop-color="#FF8C00" stop-opacity="0.76"/>
<stop offset="1" stop-color="#FF0080" stop-opacity="0.85"/>
</linearGradient>
<linearGradient id="paint58_linear_424_33" x1="2.04905e-06" y1="148.205" x2="338.352" y2="217.802" gradientUnits="userSpaceOnUse">
<stop stop-color="#40E0D0"/>
<stop offset="0.552083" stop-color="#FF8C00" stop-opacity="0.76"/>
<stop offset="1" stop-color="#FF0080" stop-opacity="0.85"/>
</linearGradient>
<linearGradient id="paint59_linear_424_33" x1="2.04905e-06" y1="148.205" x2="338.352" y2="217.802" gradientUnits="userSpaceOnUse">
<stop stop-color="#40E0D0"/>
<stop offset="0.552083" stop-color="#FF8C00" stop-opacity="0.76"/>
<stop offset="1" stop-color="#FF0080" stop-opacity="0.85"/>
</linearGradient>
<linearGradient id="paint60_linear_424_33" x1="2.04905e-06" y1="148.205" x2="338.352" y2="217.802" gradientUnits="userSpaceOnUse">
<stop stop-color="#40E0D0"/>
<stop offset="0.552083" stop-color="#FF8C00" stop-opacity="0.76"/>
<stop offset="1" stop-color="#FF0080" stop-opacity="0.85"/>
</linearGradient>
<linearGradient id="paint61_linear_424_33" x1="2.04905e-06" y1="148.205" x2="338.352" y2="217.802" gradientUnits="userSpaceOnUse">
<stop stop-color="#40E0D0"/>
<stop offset="0.552083" stop-color="#FF8C00" stop-opacity="0.76"/>
<stop offset="1" stop-color="#FF0080" stop-opacity="0.85"/>
</linearGradient>
<linearGradient id="paint62_linear_424_33" x1="2.04905e-06" y1="148.205" x2="338.352" y2="217.802" gradientUnits="userSpaceOnUse">
<stop stop-color="#40E0D0"/>
<stop offset="0.552083" stop-color="#FF8C00" stop-opacity="0.76"/>
<stop offset="1" stop-color="#FF0080" stop-opacity="0.85"/>
</linearGradient>
<linearGradient id="paint63_linear_424_33" x1="2.04905e-06" y1="148.205" x2="338.352" y2="217.802" gradientUnits="userSpaceOnUse">
<stop stop-color="#40E0D0"/>
<stop offset="0.552083" stop-color="#FF8C00" stop-opacity="0.76"/>
<stop offset="1" stop-color="#FF0080" stop-opacity="0.85"/>
</linearGradient>
</defs>
</svg>
